# Blender 3.3.1
# www.blender.org
mtllib fondo.mtl
o fondo
v 0.000000 -74.499985 -100.000015
v 0.000000 -74.500015 99.999985
v 0.000000 -75.000015 99.999985
v 0.000000 -74.999985 -100.000015
v 0.000000 74.499985 100.000015
v 0.000000 74.500015 -99.999985
v 0.000000 75.000015 -99.999985
v 0.000000 74.999985 100.000015
v -12.262297 -73.483932 99.999985
v -24.190109 -70.463402 99.999985
v -35.458080 -65.520813 99.999992
v -45.758846 -58.790985 99.999992
v -54.811432 -50.457493 99.999992
v -62.368904 -40.747654 99.999992
v -68.225113 -29.926327 99.999992
v -72.220322 -18.288687 100.000000
v -74.245544 -6.152177 100.000000
v -74.245544 6.152145 100.000000
v -72.220322 18.288652 100.000000
v -68.225113 29.926292 100.000008
v -62.368904 40.747623 100.000008
v -54.811432 50.457462 100.000008
v -45.758846 58.790955 100.000008
v -35.458080 65.520782 100.000008
v -24.190109 70.463371 100.000015
v -12.262297 73.483902 100.000015
v -12.344594 73.977081 100.000015
v -24.352461 70.936279 100.000015
v -35.696053 65.960518 100.000008
v -46.065952 59.185524 100.000008
v -55.179295 50.796104 100.000008
v -62.787487 41.021095 100.000008
v -68.682999 30.127140 100.000008
v -72.705017 18.411394 100.000000
v -74.743835 6.193435 100.000000
v -74.743835 -6.193467 100.000000
v -72.705017 -18.411428 100.000000
v -68.682999 -30.127174 99.999992
v -62.787487 -41.021126 99.999992
v -55.179295 -50.796135 99.999992
v -46.065952 -59.185555 99.999992
v -35.696053 -65.960548 99.999992
v -24.352461 -70.936310 99.999985
v -12.344594 -73.977112 99.999985
v -12.344594 73.977112 -99.999985
v -24.352461 70.936310 -99.999985
v -35.696053 65.960548 -99.999992
v -46.065952 59.185555 -99.999992
v -55.179295 50.796135 -99.999992
v -62.787487 41.021126 -99.999992
v -68.682999 30.127174 -99.999992
v -72.705017 18.411428 -100.000000
v -74.743835 6.193467 -100.000000
v -74.743835 -6.193435 -100.000000
v -72.705017 -18.411394 -100.000000
v -68.682999 -30.127140 -100.000008
v -62.787487 -41.021095 -100.000008
v -55.179295 -50.796104 -100.000008
v -46.065952 -59.185524 -100.000008
v -35.696053 -65.960518 -100.000008
v -24.352461 -70.936279 -100.000015
v -12.344594 -73.977081 -100.000015
v -12.262297 -73.483902 -100.000015
v -24.190109 -70.463371 -100.000015
v -35.458080 -65.520782 -100.000008
v -45.758846 -58.790955 -100.000008
v -54.811432 -50.457462 -100.000008
v -62.368904 -40.747623 -100.000008
v -68.225113 -29.926292 -100.000008
v -72.220322 -18.288652 -100.000000
v -74.245544 -6.152145 -100.000000
v -74.245544 6.152177 -100.000000
v -72.220322 18.288687 -100.000000
v -68.225113 29.926327 -99.999992
v -62.368904 40.747654 -99.999992
v -54.811432 50.457493 -99.999992
v -45.758846 58.790985 -99.999992
v -35.458080 65.520813 -99.999992
v -24.190109 70.463402 -99.999985
v -12.262297 73.483932 -99.999985
vn 1.0000 -0.0000 -0.0000
vn -0.0000 -0.0000 1.0000
vn -0.0000 1.0000 -0.0000
vn -0.1646 0.9864 -0.0000
vn -0.3247 0.9458 -0.0000
vn -0.4760 0.8795 -0.0000
vn -0.4759 0.8795 -0.0000
vn -0.6142 0.7891 -0.0000
vn -0.6142 0.7892 -0.0000
vn -0.7357 0.6773 -0.0000
vn -0.8372 0.5469 -0.0000
vn -0.8372 0.5470 -0.0000
vn -0.9158 0.4017 -0.0000
vn -0.9694 0.2455 -0.0000
vn -0.9966 0.0826 -0.0000
vn -0.9966 -0.0826 -0.0000
vn -0.9694 -0.2455 -0.0000
vn -0.9158 -0.4017 -0.0000
vn -0.8372 -0.5470 -0.0000
vn -0.8372 -0.5469 -0.0000
vn -0.7357 -0.6773 -0.0000
vn -0.6142 -0.7892 -0.0000
vn -0.6142 -0.7891 -0.0000
vn -0.4759 -0.8795 -0.0000
vn -0.4760 -0.8795 -0.0000
vn -0.3247 -0.9458 -0.0000
vn -0.1646 -0.9864 -0.0000
vn -0.0000 -1.0000 -0.0000
vn 0.1646 -0.9864 -0.0000
vn 0.3247 -0.9458 -0.0000
vn 0.4760 -0.8795 -0.0000
vn 0.4759 -0.8795 -0.0000
vn 0.6142 -0.7891 -0.0000
vn 0.6142 -0.7892 -0.0000
vn 0.7357 -0.6773 -0.0000
vn 0.8372 -0.5469 -0.0000
vn 0.8372 -0.5470 -0.0000
vn 0.9158 -0.4017 -0.0000
vn 0.9694 -0.2455 -0.0000
vn 0.9966 -0.0826 -0.0000
vn 0.9966 0.0826 -0.0000
vn 0.9694 0.2455 -0.0000
vn 0.9158 0.4017 -0.0000
vn 0.8372 0.5470 -0.0000
vn 0.8372 0.5469 -0.0000
vn 0.7357 0.6773 -0.0000
vn 0.6142 0.7892 -0.0000
vn 0.6142 0.7891 -0.0000
vn 0.4759 0.8795 -0.0000
vn 0.4760 0.8795 -0.0000
vn 0.3247 0.9458 -0.0000
vn 0.1646 0.9864 -0.0000
vn -0.0000 -0.0000 -1.0000
vt 10.000000 -7.450000
vt 0.066126 0.997207
vt 0.000000 -7.450000
vt -10.000000 -7.450000
vt 0.000000 -7.450000
vt 0.914582 0.997207
vt -10.000000 -7.500000
vt 0.000000 -7.500000
vt -5.000000 35.342918
vt 10.000000 -7.500000
vt 15.000000 35.342918
vt 0.000000 -7.500000
vt -10.000000 7.450000
vt 0.000000 7.450000
vt 0.914582 0.004307
vt 10.000000 7.450000
vt 0.066126 0.004307
vt 0.000000 7.450000
vt 10.000000 7.500000
vt 15.000000 11.780972
vt 0.000000 7.500000
vt -10.000000 7.500000
vt 0.000000 7.500000
vt -5.000000 11.780972
vt -1.226230 -7.348392
vt 0.914582 0.944948
vt -2.419011 -7.046338
vt 0.914582 0.892691
vt -3.545808 -6.552079
vt 0.914582 0.840433
vt -4.575885 -5.879097
vt 0.914582 0.788175
vt -5.481143 -5.045748
vt 0.914582 0.735917
vt -6.236890 -4.074764
vt 0.914582 0.683659
vt -6.822511 -2.992631
vt 0.914582 0.631402
vt -7.222032 -1.828867
vt 0.914582 0.579144
vt -7.424554 -0.615216
vt 0.914582 0.526886
vt -7.424554 0.615216
vt 0.914582 0.474628
vt -7.222032 1.828867
vt 0.914582 0.422370
vt -6.822511 2.992631
vt 0.914582 0.370112
vt -6.236890 4.074764
vt 0.914582 0.317854
vt -5.481143 5.045748
vt 0.914582 0.265597
vt -4.575885 5.879097
vt 0.914582 0.213339
vt -3.545808 6.552079
vt 0.914582 0.161081
vt -2.419011 7.046338
vt 0.914582 0.108823
vt -1.226230 7.348392
vt 0.914582 0.056565
vt -1.234459 7.397710
vt -5.000000 13.021075
vt -2.435246 7.093629
vt -5.000000 14.261177
vt -3.569605 6.596053
vt -5.000000 15.501280
vt -4.606595 5.918554
vt -5.000000 16.741383
vt -5.517929 5.079612
vt -5.000000 17.981483
vt -6.278749 4.102111
vt -5.000000 19.221586
vt -6.868300 3.012716
vt -5.000000 20.461689
vt -7.270502 1.841141
vt -5.000000 21.701792
vt -7.474384 0.619345
vt -5.000000 22.941895
vt -7.474384 -0.619345
vt -5.000000 24.181995
vt -7.270502 -1.841141
vt -5.000000 25.422098
vt -6.868300 -3.012716
vt -5.000000 26.662201
vt -6.278749 -4.102111
vt -5.000000 27.902304
vt -5.517929 -5.079612
vt -5.000000 29.142406
vt -4.606595 -5.918554
vt -5.000000 30.382507
vt -3.569605 -6.596053
vt -5.000000 31.622610
vt -2.435246 -7.093629
vt -5.000000 32.862713
vt -1.234459 -7.397710
vt -5.000000 34.102814
vt 15.000000 13.021075
vt 1.234459 7.397710
vt 15.000000 14.261177
vt 2.435246 7.093629
vt 15.000000 15.501280
vt 3.569605 6.596053
vt 15.000000 16.741383
vt 4.606595 5.918554
vt 15.000000 17.981483
vt 5.517929 5.079612
vt 15.000000 19.221586
vt 6.278749 4.102111
vt 15.000000 20.461689
vt 6.868300 3.012716
vt 15.000000 21.701792
vt 7.270502 1.841141
vt 15.000000 22.941895
vt 7.474384 0.619345
vt 15.000000 24.181995
vt 7.474384 -0.619345
vt 15.000000 25.422098
vt 7.270502 -1.841141
vt 15.000000 26.662201
vt 6.868300 -3.012716
vt 15.000000 27.902304
vt 6.278749 -4.102111
vt 15.000000 29.142406
vt 5.517929 -5.079612
vt 15.000000 30.382507
vt 4.606595 -5.918554
vt 15.000000 31.622610
vt 3.569605 -6.596053
vt 15.000000 32.862713
vt 2.435246 -7.093629
vt 15.000000 34.102814
vt 1.234459 -7.397710
vt 0.066126 0.944948
vt 1.226230 -7.348392
vt 0.066126 0.892691
vt 2.419011 -7.046338
vt 0.066126 0.840433
vt 3.545808 -6.552079
vt 0.066126 0.788175
vt 4.575885 -5.879097
vt 0.066126 0.735917
vt 5.481143 -5.045748
vt 0.066126 0.683659
vt 6.236890 -4.074764
vt 0.066126 0.631402
vt 6.822511 -2.992631
vt 0.066126 0.579144
vt 7.222032 -1.828867
vt 0.066126 0.526886
vt 7.424554 -0.615216
vt 0.066126 0.474628
vt 7.424554 0.615216
vt 0.066126 0.422370
vt 7.222032 1.828867
vt 0.066126 0.370112
vt 6.822511 2.992631
vt 0.066126 0.317854
vt 6.236890 4.074764
vt 0.066126 0.265597
vt 5.481143 5.045748
vt 0.066126 0.213339
vt 4.575885 5.879097
vt 0.066126 0.161081
vt 3.545808 6.552079
vt 0.066126 0.108823
vt 2.419011 7.046338
vt 0.066126 0.056565
vt 1.226230 7.348392
s 0
usemtl Steel_-_Satin.002
f 1/1/1 2/4/1 4/10/1
f 4/10/1 2/4/1 3/7/1
f 5/13/1 6/16/1 8/22/1
f 8/22/1 6/16/1 7/19/1
f 2/5/2 9/25/2 3/8/2
f 3/8/2 9/25/2 44/95/2
f 44/95/2 9/25/2 10/27/2
f 44/95/2 10/27/2 43/93/2
f 43/93/2 10/27/2 11/29/2
f 43/93/2 11/29/2 42/91/2
f 42/91/2 11/29/2 12/31/2
f 42/91/2 12/31/2 41/89/2
f 41/89/2 12/31/2 13/33/2
f 41/89/2 13/33/2 40/87/2
f 40/87/2 13/33/2 14/35/2
f 40/87/2 14/35/2 39/85/2
f 39/85/2 14/35/2 15/37/2
f 39/85/2 15/37/2 38/83/2
f 38/83/2 15/37/2 16/39/2
f 38/83/2 16/39/2 37/81/2
f 37/81/2 16/39/2 17/41/2
f 37/81/2 17/41/2 36/79/2
f 36/79/2 17/41/2 18/43/2
f 36/79/2 18/43/2 35/77/2
f 35/77/2 18/43/2 34/75/2
f 34/75/2 18/43/2 19/45/2
f 34/75/2 19/45/2 33/73/2
f 33/73/2 19/45/2 20/47/2
f 33/73/2 20/47/2 32/71/2
f 32/71/2 20/47/2 21/49/2
f 32/71/2 21/49/2 31/69/2
f 31/69/2 21/49/2 22/51/2
f 31/69/2 22/51/2 30/67/2
f 30/67/2 22/51/2 23/53/2
f 30/67/2 23/53/2 29/65/2
f 29/65/2 23/53/2 24/55/2
f 29/65/2 24/55/2 28/63/2
f 28/63/2 24/55/2 25/57/2
f 28/63/2 25/57/2 27/61/2
f 27/61/2 25/57/2 26/59/2
f 27/61/2 26/59/2 8/23/2
f 8/23/2 26/59/2 5/14/2
f 8/24/3 7/20/3 27/62/4
f 27/62/4 7/20/3 45/97/4
f 27/62/4 45/97/4 28/64/5
f 28/64/5 45/97/4 46/99/5
f 28/64/5 46/99/5 29/66/6
f 29/66/6 46/99/5 47/101/6
f 29/66/7 47/101/7 30/68/8
f 30/68/8 47/101/7 48/103/8
f 30/68/9 48/103/9 31/70/10
f 31/70/10 48/103/9 49/105/10
f 31/70/10 49/105/10 32/72/11
f 32/72/11 49/105/10 50/107/11
f 32/72/12 50/107/12 33/74/13
f 33/74/13 50/107/12 51/109/13
f 33/74/13 51/109/13 34/76/14
f 34/76/14 51/109/13 52/111/14
f 34/76/14 52/111/14 35/78/15
f 35/78/15 52/111/14 53/113/15
f 35/78/15 53/113/15 36/80/16
f 36/80/16 53/113/15 54/115/16
f 36/80/16 54/115/16 37/82/17
f 37/82/17 54/115/16 55/117/17
f 37/82/17 55/117/17 38/84/18
f 38/84/18 55/117/17 56/119/18
f 38/84/18 56/119/18 39/86/19
f 39/86/19 56/119/18 57/121/19
f 39/86/20 57/121/20 40/88/21
f 40/88/21 57/121/20 58/123/21
f 40/88/21 58/123/21 41/90/22
f 41/90/22 58/123/21 59/125/22
f 41/90/23 59/125/23 42/92/24
f 42/92/24 59/125/23 60/127/24
f 42/92/25 60/127/25 43/94/26
f 43/94/26 60/127/25 61/129/26
f 43/94/26 61/129/26 44/96/27
f 44/96/27 61/129/26 62/131/27
f 44/96/27 62/131/27 3/9/28
f 3/9/28 62/131/27 4/11/28
f 6/17/28 5/15/28 80/167/29
f 80/167/29 5/15/28 26/60/29
f 80/167/29 26/60/29 79/165/30
f 79/165/30 26/60/29 25/58/30
f 79/165/30 25/58/30 78/163/31
f 78/163/31 25/58/30 24/56/31
f 78/163/32 24/56/32 77/161/33
f 77/161/33 24/56/32 23/54/33
f 77/161/34 23/54/34 76/159/35
f 76/159/35 23/54/34 22/52/35
f 76/159/35 22/52/35 75/157/36
f 75/157/36 22/52/35 21/50/36
f 75/157/37 21/50/37 74/155/38
f 74/155/38 21/50/37 20/48/38
f 74/155/38 20/48/38 73/153/39
f 73/153/39 20/48/38 19/46/39
f 73/153/39 19/46/39 72/151/40
f 72/151/40 19/46/39 18/44/40
f 72/151/40 18/44/40 71/149/41
f 71/149/41 18/44/40 17/42/41
f 71/149/41 17/42/41 70/147/42
f 70/147/42 17/42/41 16/40/42
f 70/147/42 16/40/42 69/145/43
f 69/145/43 16/40/42 15/38/43
f 69/145/43 15/38/43 68/143/44
f 68/143/44 15/38/43 14/36/44
f 68/143/45 14/36/45 67/141/46
f 67/141/46 14/36/45 13/34/46
f 67/141/46 13/34/46 66/139/47
f 66/139/47 13/34/46 12/32/47
f 66/139/48 12/32/48 65/137/49
f 65/137/49 12/32/48 11/30/49
f 65/137/50 11/30/50 64/135/51
f 64/135/51 11/30/50 10/28/51
f 64/135/51 10/28/51 63/133/52
f 63/133/52 10/28/51 9/26/52
f 63/133/52 9/26/52 1/2/3
f 1/2/3 9/26/52 2/6/3
f 6/18/53 80/168/53 7/21/53
f 7/21/53 80/168/53 45/98/53
f 45/98/53 80/168/53 79/166/53
f 45/98/53 79/166/53 46/100/53
f 46/100/53 79/166/53 78/164/53
f 46/100/53 78/164/53 47/102/53
f 47/102/53 78/164/53 77/162/53
f 47/102/53 77/162/53 48/104/53
f 48/104/53 77/162/53 76/160/53
f 48/104/53 76/160/53 49/106/53
f 49/106/53 76/160/53 75/158/53
f 49/106/53 75/158/53 50/108/53
f 50/108/53 75/158/53 74/156/53
f 50/108/53 74/156/53 51/110/53
f 51/110/53 74/156/53 73/154/53
f 51/110/53 73/154/53 52/112/53
f 52/112/53 73/154/53 72/152/53
f 52/112/53 72/152/53 53/114/53
f 53/114/53 72/152/53 54/116/53
f 54/116/53 72/152/53 71/150/53
f 54/116/53 71/150/53 55/118/53
f 55/118/53 71/150/53 70/148/53
f 55/118/53 70/148/53 56/120/53
f 56/120/53 70/148/53 69/146/53
f 56/120/53 69/146/53 57/122/53
f 57/122/53 69/146/53 68/144/53
f 57/122/53 68/144/53 58/124/53
f 58/124/53 68/144/53 67/142/53
f 58/124/53 67/142/53 59/126/53
f 59/126/53 67/142/53 66/140/53
f 59/126/53 66/140/53 60/128/53
f 60/128/53 66/140/53 65/138/53
f 60/128/53 65/138/53 61/130/53
f 61/130/53 65/138/53 64/136/53
f 61/130/53 64/136/53 62/132/53
f 62/132/53 64/136/53 63/134/53
f 62/132/53 63/134/53 4/12/53
f 4/12/53 63/134/53 1/3/53
